# xmcd
#
# Track frame offsets:
#   150
#   20522
#   42292
#   66998
#   95330
#   112388
#   126994
#   142836
#   161632
#   185921
#   207877
#   225918
#
# Disc length: 3348 seconds
#
# Revision: 0
# Processed by: cddbd v1.5.2PL0 Copyright (c) Steve Scherf et al.
# Submitted via: uFREEDB ActiveX Control 1.5
#
DISCID=ab0d120c
DTITLE=Fernando Noronha - Meet Yourself
DYEAR=1900
DGENRE=Blues
TTITLE0=I'm Arising
TTITLE1=I Like That Stuff
TTITLE2=Turning Point
TTITLE3=Meet Yourself
TTITLE4=Man In Love
TTITLE5=Shining Gold
TTITLE6=The Secret Of Your Recipe
TTITLE7=Outer Space Blues
TTITLE8=I Wanted On
TTITLE9=The Man Who Drowned RnR
TTITLE10=What You Get
TTITLE11=Open Your Eyes
EXTD=
EXTT0=
EXTT1=
EXTT2=
EXTT3=
EXTT4=
EXTT5=
EXTT6=
EXTT7=
EXTT8=
EXTT9=
EXTT10=
EXTT11=
PLAYORDER=
